<svg width="1599" height="1792" viewBox="0 0 1599 1792" fill="none" xmlns="http://www.w3.org/2000/svg">
<path d="M813.303 1566.41L783.743 1698L568.876 1791.77L201.441 1744.72L298.068 1540.03L201.441 1300.05L239.583 1042.59L650.564 891.614L802.814 1019.07L783.743 1174.18C771.559 1235.63 747.826 1360.32 750.369 1367.44C752.912 1374.56 793.385 1503.05 813.303 1566.41Z" fill="#708300"/>
<path d="M961.084 1406.39C959.327 1415.96 1012.07 1519.69 1038.67 1570.37L1074.61 1615.94C1137.81 1594.88 1265.2 1552.61 1269.21 1551.94C1273.23 1551.28 1444.51 1549.38 1529.65 1548.52L1488.28 1356.27L1526.09 1099.6L1433.99 842.661L1288.71 945.483L1074.37 902.561L898.782 1032.34L961.416 1218.79C962.037 1277.33 962.841 1396.81 961.084 1406.39Z" fill="#00779C"/>
<path d="M1266.99 895.646L1494.88 789.286C1482.62 626.231 1457.05 296.082 1452.86 279.932C1448.66 263.782 1368.19 144.446 1328.48 86.7968L955.171 55.2892L652.781 266.056L788.786 509.353L752.556 765.77L857.998 849.114L1085.07 776.772L1266.99 895.646Z" fill="#EF34FF"/>
<path d="M267.063 1005.46L578.874 843.035L730.807 588.436C683.553 521.158 587.011 383.042 578.874 368.802C570.737 354.562 518.906 232.126 494.008 172.688L240.681 161.246L60.7781 481.639L0.704364 843.034L267.063 1005.46Z" fill="#0F7213"/>
</svg>
